<svg width="197" height="42" viewBox="0 0 197 42" fill="none" xmlns="http://www.w3.org/2000/svg">
<path d="M13.9459 10.3724C13.9778 10.3386 14.0146 10.3054 14.0532 10.2732C14.0679 10.4693 14.0707 10.4696 14.0106 10.6562C13.9974 10.6186 13.9561 10.4781 13.9459 10.3724ZM14.1804 9.71881C14.0879 9.96508 14.0412 10.0317 14.0512 10.2404C14.0127 10.2742 13.9759 10.3086 13.9438 10.3439C13.9278 10.1008 14.009 9.89499 14.1804 9.71881ZM17.8982 10.9065C17.897 10.9047 17.8961 10.9031 17.8949 10.9015C17.8949 10.9009 17.8952 10.9002 17.8952 10.8999C17.8961 10.9021 17.8973 10.904 17.8982 10.9065ZM17.9367 11.2043C17.9225 11.1171 17.9041 11.0347 17.8844 10.958C17.885 10.9552 17.8853 10.9523 17.886 10.9492C17.9032 10.9754 17.9194 11.0019 17.9342 11.0287C17.9468 11.0963 17.945 11.1487 17.9367 11.2043ZM17.948 11.2387C17.9489 11.2554 17.9483 11.2589 17.9468 11.2709C17.9459 11.2652 17.9453 11.2592 17.9443 11.2538C17.9456 11.2488 17.9468 11.2437 17.948 11.2387ZM17.8577 12.0381C17.8641 12.022 17.9016 11.9222 17.9127 11.8853C17.9059 11.932 17.8909 11.9914 17.8577 12.0381ZM4.35449 40.7465C4.39502 40.6767 4.4551 40.5315 4.50083 40.5084C4.51696 40.5002 4.54668 40.5201 4.5456 40.5375C4.50258 40.6751 4.31629 40.8125 4.35449 40.7465ZM1.33569 16.3211C1.3583 16.2842 1.47861 16.2495 1.50442 16.2589C1.48888 16.2937 1.36645 16.3265 1.33569 16.3211ZM1.28747 16.3401C1.29614 16.3189 1.31334 16.3192 1.33169 16.3221C1.32195 16.341 1.30283 16.336 1.28747 16.3401ZM1.26608 16.3458C1.27026 16.3451 1.27447 16.3445 1.27868 16.3439C1.26793 16.3502 1.27008 16.348 1.26608 16.3458ZM1.19513 16.3754C1.1954 16.3698 1.19497 16.3638 1.20447 16.3644C1.21108 16.365 1.20078 16.372 1.19513 16.3754ZM17.9563 11.6687C17.9579 11.6526 17.9591 11.6365 17.9603 11.6201C17.9606 11.6352 17.9597 11.652 17.9563 11.6687ZM17.9646 11.0897C18.055 11.2854 18.0719 11.5235 17.9554 11.7041C17.9778 11.6564 17.9594 11.3795 17.952 11.3141C17.9591 11.2867 17.96 11.2554 17.9508 11.228C17.9539 11.2141 17.9659 11.1339 17.9646 11.0897ZM27.7141 26.731C27.648 26.6657 27.7611 26.5088 27.5675 26.4643C27.2648 26.3942 27.2427 26.5214 26.9185 26.6805C26.7375 26.7692 26.6914 26.6913 26.4646 26.6477C26.1195 26.5817 26.2937 27.0051 24.6997 25.7589C23.4149 24.7546 21.7158 25.931 21.2106 25.5964C20.4771 25.1105 20.2626 25.1493 20.2119 24.9955C20.0229 24.4228 19.6655 23.8233 19.1732 23.3396C17.9265 22.114 17.6509 23.7668 18.0691 20.5016C18.2366 19.1939 19.558 16.4553 19.8619 15.2679C20.0543 14.5174 20.3431 10.8813 20.7248 9.596C21.2146 7.94573 19.1385 4.93567 18.7599 4.06617C18.3761 3.18468 18.598 3.12817 17.3073 1.65913C17.2283 1.56915 17.2388 1.49779 17.1149 1.43212C16.937 1.33741 16.9871 1.25153 16.4819 0.826889C16.2324 0.617252 15.316 0.260807 15.3667 0.483704C15.4509 0.855621 15.7613 0.765644 15.8667 0.886246C15.9361 0.965809 14.6365 0.488125 14.7416 0.72081C14.7862 0.81963 14.7118 0.892876 14.9442 0.990749C15.1067 1.05926 15.2047 1.04852 15.3203 1.10788C15.5231 1.21175 14.7171 0.95002 14.8142 1.15871C14.8658 1.27016 14.8363 1.27174 14.9131 1.33173C15.0609 1.44602 15.2407 1.4356 15.2693 1.48959C15.3937 1.72543 15.5953 1.72732 15.6817 1.80278C15.8974 1.99095 15.9143 1.99063 15.8719 2.00579C15.6789 2.0743 15.7874 2.32024 15.9205 2.43011C16.3304 2.76825 16.2729 2.34803 17.1721 3.38264C17.3764 3.61785 17.5178 3.50451 17.6269 3.80475C18.1407 5.21886 18.2178 6.26706 18.6173 7.48636C19.0565 8.82691 19.2983 8.83701 19.0973 9.27302C18.2449 11.1209 18.1736 13.109 17.3817 13.8958C17.3906 13.8617 17.3943 13.8241 17.3897 13.7805C17.3897 13.7809 17.3897 13.7809 17.3897 13.7812C17.3728 13.6192 17.2505 13.491 17.2505 13.491C17.3764 13.4055 17.409 13.27 17.378 13.1156C17.3488 12.9682 17.2689 12.835 17.2465 12.7993C17.2449 12.7971 17.2422 12.7927 17.2403 12.7898C17.3012 12.7447 17.389 12.6339 17.4222 12.5054C17.5679 12.5963 17.673 12.6222 17.8036 12.6399C17.6721 12.6178 17.5688 12.5884 17.4259 12.4915C17.4293 12.4766 17.4321 12.4621 17.4342 12.4476C17.4422 12.4435 17.4493 12.4387 17.4573 12.4346C17.5691 12.5268 17.6902 12.5925 17.7953 12.6282C17.6924 12.5874 17.5771 12.517 17.4745 12.4245C17.511 12.4037 17.5455 12.3819 17.5771 12.3589C17.5839 12.3604 17.5909 12.362 17.5977 12.3633C17.622 12.3456 17.6441 12.3273 17.6653 12.3083C17.8208 12.3686 17.9963 12.3447 18.0943 12.2862C17.9947 12.3402 17.8245 12.3566 17.6785 12.2957C17.7212 12.2556 17.7581 12.2127 17.7885 12.1675C17.8915 12.1177 17.9456 12.0097 17.9244 11.8449C17.9284 11.83 17.932 11.8152 17.9354 11.8004C18 11.7956 18.0341 11.7868 18.0906 11.7716C18.0331 11.7849 18 11.7925 17.9367 11.795C17.9422 11.7685 17.9468 11.7413 17.9505 11.7142C18.098 11.5156 18.0716 11.2346 17.9566 11.0085C17.948 10.9593 17.9357 10.9116 17.9056 10.844C17.9302 10.7023 17.9459 10.5602 17.9499 10.4169C18.1914 10.7035 18.3386 11.0344 18.2283 11.3959C18.357 11.018 18.2012 10.666 17.9505 10.36C17.9668 8.12348 15.3022 7.78977 15.0953 8.43542C15.0883 8.43415 15.092 8.43383 15.0861 8.43415C15.0327 8.40953 14.97 8.42089 14.9359 8.43289C14.5292 8.57528 14.3634 9.09558 14.2792 9.45424C13.6808 9.63831 13.8741 10.3061 13.5735 10.3862C13.8405 10.3244 13.7574 9.64525 14.2653 9.49781C14.2496 9.53791 14.2337 9.57769 14.2185 9.61747C14.0005 9.81953 13.8878 10.0633 13.9247 10.366C13.7997 10.5135 13.7537 10.6811 13.7886 10.8567C13.7622 10.6887 13.8085 10.5283 13.9281 10.3919C13.9429 10.4926 13.969 10.5801 14.0056 10.6717C13.8195 11.2428 13.9979 12.0409 14.147 12.4662C14.4141 13.228 15.209 12.2111 14.6123 14.381C14.5389 14.6481 12.4854 14.7233 12.1737 14.7984C11.2284 15.027 11.3708 15.2067 10.1982 15.278C6.84087 15.4826 8.29293 15.2445 6.83703 15.3459C6.00793 15.404 4.3391 15.7876 3.37057 15.433C2.52795 15.1246 2.38712 15.3699 1.92211 15.3222C1.69415 15.2988 1.68804 15.3838 1.36943 15.4403C1.10567 15.4867 0.950976 15.5337 0.509753 15.8046C-0.103006 16.181 0.24787 16.354 0.445895 16.2271C0.55514 16.1573 1.13336 15.8681 1.1455 15.93C1.15339 15.9701 0.254232 16.2776 0.0265212 16.695C0.0213893 16.7044 0.00900393 16.7095 0 16.7167C0 16.7287 0 16.7407 0 16.7527C0.00583873 16.7553 0.137549 16.9867 0.489778 16.6896C0.572995 16.6192 1.0105 16.3751 1.18665 16.3802C1.053 16.4477 0.963391 16.5147 0.62161 16.6719C0.157032 16.886 0.214128 17.1082 0.500933 17.0476C0.858324 16.9722 1.80125 16.4657 1.7833 16.6457C1.77706 16.7092 0.425798 17.0268 0.791763 17.1897C0.990433 17.2781 3.23659 16.6621 3.30189 16.634C4.2025 16.2444 6.05645 17.2263 8.56974 16.9643C8.96739 16.9229 12.8451 16.587 12.712 16.9611C12.3308 18.0327 11.2332 18.5227 12.0038 19.7691C12.2888 20.2301 12.5437 20.1009 12.5867 20.3605C12.637 20.6635 13.5326 24.9466 13.57 25.2718C13.8333 27.5642 15.1912 27.5671 15.0004 27.7685C11.4827 31.4836 11.7835 31.9341 11.4364 32.3291C10.7253 33.1379 10.176 33.3394 9.57228 34.0144C9.27958 34.3418 7.96734 35.9797 7.96252 35.9857C7.20622 36.9149 7.22306 36.2964 6.51371 37.3364C6.31222 37.6316 6.12347 37.731 5.9543 37.8437C5.43702 38.1882 5.68323 38.252 5.25565 38.7372C4.99073 39.0378 4.97038 38.9832 4.58494 39.356C4.4346 39.5013 4.40034 39.6168 4.3437 39.6853C3.8535 40.2795 3.78383 40.1075 3.61042 40.5933C3.52785 40.8248 3.69001 41.1077 3.93847 41.1017C3.96443 41.101 4.00069 41.0859 4.01406 41.0982C4.03794 41.12 3.99854 41.1484 4.00146 41.1771C4.01643 41.3255 4.12377 41.519 4.3654 41.3849C4.43291 41.3473 4.36168 41.5162 4.55255 41.5793C4.5547 41.5803 4.55577 41.5844 4.55737 41.5869C4.58079 41.5869 4.60414 41.5869 4.6275 41.5869C4.83563 41.4793 4.79286 41.4294 4.85782 41.4824C5.07631 41.6614 5.13965 41.4212 5.23199 41.508C5.57577 41.8316 6.27073 40.4974 6.46627 40.0607C7.4287 37.9107 7.26694 39.0053 7.83397 38.2166C8.51827 37.265 10.2248 36.3899 10.6135 36.2566C11.3964 35.9879 12.074 35.2514 12.5994 34.6225C13.1322 33.9847 12.93 33.7675 14.1153 32.3827C15.5818 30.669 19.1379 29.366 20.0828 27.7612C20.1044 27.7246 20.1289 27.7132 20.1677 27.7155C21.1716 27.7688 22.1498 27.5273 22.3517 27.4247C22.8526 27.1705 24.2723 27.6451 25.2099 27.6514C25.771 27.6548 25.8463 28.0116 26.3589 27.8424C26.5187 27.7897 26.641 27.8796 26.9357 27.9099C27.9531 28.0151 27.7085 27.9835 27.8404 27.3644C27.8422 27.3565 27.8487 27.3492 27.853 27.342C27.853 27.294 27.853 27.2457 27.853 27.1977C27.8493 27.192 27.7897 26.8059 27.7141 26.731Z" fill="white"/>
<path d="M41.7289 28.5L47.2719 11.71H53.3669L59.1169 28.5H55.2069L50.5609 14.309L51.7569 14.792H48.7899L50.0319 14.309L45.5009 28.5H41.7289ZM45.9379 24.337L47.0879 21.209H53.6659L54.8389 24.337H45.9379ZM63.2237 28.5L59.4517 15.896H63.2467L66.7887 28.5H63.2237ZM64.3737 28.5V25.441H68.0767V28.5H64.3737ZM65.7307 28.5L68.7897 15.896H72.3317L69.0657 28.5H65.7307ZM81.9202 28.5V24.774H81.2992V20.726C81.2992 20.082 81.1458 19.599 80.8392 19.277C80.5325 18.955 80.0418 18.794 79.3672 18.794C79.0298 18.794 78.5852 18.8017 78.0332 18.817C77.4812 18.8323 76.9138 18.8553 76.3312 18.886C75.7485 18.9167 75.2195 18.9473 74.7442 18.978V15.873C75.0968 15.8423 75.5108 15.8117 75.9862 15.781C76.4615 15.7503 76.9522 15.7273 77.4582 15.712C77.9642 15.6967 78.4395 15.689 78.8842 15.689C80.1722 15.689 81.2532 15.873 82.1272 16.241C83.0165 16.609 83.6912 17.1687 84.1512 17.92C84.6112 18.656 84.8412 19.6067 84.8412 20.772V28.5H81.9202ZM77.8952 28.822C76.9905 28.822 76.1932 28.661 75.5032 28.339C74.8285 28.017 74.2995 27.557 73.9162 26.959C73.5328 26.3457 73.3412 25.6173 73.3412 24.774C73.3412 23.854 73.5788 23.1027 74.0542 22.52C74.5295 21.922 75.1965 21.485 76.0552 21.209C76.9138 20.9177 77.9028 20.772 79.0222 20.772H81.7132V22.819H78.9992C78.3552 22.819 77.8568 22.98 77.5042 23.302C77.1668 23.6087 76.9982 24.0303 76.9982 24.567C76.9982 25.073 77.1668 25.487 77.5042 25.809C77.8568 26.1157 78.3552 26.269 78.9992 26.269C79.4132 26.269 79.7812 26.2 80.1032 26.062C80.4405 25.9087 80.7165 25.6557 80.9312 25.303C81.1458 24.9503 81.2685 24.4597 81.2992 23.831L82.1732 24.751C82.0965 25.625 81.8818 26.361 81.5292 26.959C81.1918 27.557 80.7165 28.017 80.1032 28.339C79.5052 28.661 78.7692 28.822 77.8952 28.822ZM93.1614 28.914C92.2721 28.914 91.4594 28.753 90.7234 28.431C90.0028 28.109 89.3741 27.6643 88.8374 27.097C88.3008 26.5143 87.8868 25.832 87.5954 25.05C87.3194 24.268 87.1814 23.4247 87.1814 22.52V21.991C87.1814 21.0863 87.3118 20.243 87.5724 19.461C87.8484 18.679 88.2394 17.9967 88.7454 17.414C89.2668 16.816 89.8878 16.356 90.6084 16.034C91.3291 15.6967 92.1341 15.528 93.0234 15.528C94.0354 15.528 94.9094 15.7503 95.6454 16.195C96.3814 16.6243 96.9564 17.2683 97.3704 18.127C97.7844 18.9703 98.0144 20.013 98.0604 21.255L97.0944 20.358V11.71H100.797V28.5H97.8764V23.279H98.3824C98.3364 24.475 98.0834 25.4947 97.6234 26.338C97.1788 27.1813 96.5731 27.8253 95.8064 28.27C95.0398 28.6993 94.1581 28.914 93.1614 28.914ZM94.0814 25.832C94.6488 25.832 95.1624 25.7093 95.6224 25.464C96.0978 25.2033 96.4734 24.8277 96.7494 24.337C97.0408 23.8463 97.1864 23.256 97.1864 22.566V21.715C97.1864 21.0403 97.0408 20.473 96.7494 20.013C96.4581 19.553 96.0748 19.2003 95.5994 18.955C95.1241 18.7097 94.6104 18.587 94.0584 18.587C93.4451 18.587 92.8931 18.748 92.4024 19.07C91.9271 19.3767 91.5514 19.806 91.2754 20.358C90.9994 20.8947 90.8614 21.5233 90.8614 22.244C90.8614 22.98 90.9994 23.6163 91.2754 24.153C91.5514 24.6897 91.9348 25.1037 92.4254 25.395C92.9161 25.6863 93.4681 25.832 94.0814 25.832ZM111.748 28.5V24.774H111.127V20.726C111.127 20.082 110.974 19.599 110.667 19.277C110.361 18.955 109.87 18.794 109.195 18.794C108.858 18.794 108.413 18.8017 107.861 18.817C107.309 18.8323 106.742 18.8553 106.159 18.886C105.577 18.9167 105.048 18.9473 104.572 18.978V15.873C104.925 15.8423 105.339 15.8117 105.814 15.781C106.29 15.7503 106.78 15.7273 107.286 15.712C107.792 15.6967 108.268 15.689 108.712 15.689C110 15.689 111.081 15.873 111.955 16.241C112.845 16.609 113.519 17.1687 113.979 17.92C114.439 18.656 114.669 19.6067 114.669 20.772V28.5H111.748ZM107.723 28.822C106.819 28.822 106.021 28.661 105.331 28.339C104.657 28.017 104.128 27.557 103.744 26.959C103.361 26.3457 103.169 25.6173 103.169 24.774C103.169 23.854 103.407 23.1027 103.882 22.52C104.358 21.922 105.025 21.485 105.883 21.209C106.742 20.9177 107.731 20.772 108.85 20.772H111.541V22.819H108.827C108.183 22.819 107.685 22.98 107.332 23.302C106.995 23.6087 106.826 24.0303 106.826 24.567C106.826 25.073 106.995 25.487 107.332 25.809C107.685 26.1157 108.183 26.269 108.827 26.269C109.241 26.269 109.609 26.2 109.931 26.062C110.269 25.9087 110.545 25.6557 110.759 25.303C110.974 24.9503 111.097 24.4597 111.127 23.831L112.001 24.751C111.925 25.625 111.71 26.361 111.357 26.959C111.02 27.557 110.545 28.017 109.931 28.339C109.333 28.661 108.597 28.822 107.723 28.822ZM126.14 28.592V25.073H129.268C130.05 25.073 130.755 24.958 131.384 24.728C132.012 24.4827 132.549 24.1453 132.994 23.716C133.438 23.2713 133.776 22.7423 134.006 22.129C134.236 21.5003 134.351 20.8103 134.351 20.059C134.351 19.277 134.236 18.5793 134.006 17.966C133.776 17.3527 133.438 16.8313 132.994 16.402C132.549 15.9727 132.012 15.6507 131.384 15.436C130.755 15.206 130.05 15.091 129.268 15.091H126.14V11.572H129.061C130.579 11.572 131.905 11.7943 133.04 12.239C134.174 12.6837 135.125 13.2893 135.892 14.056C136.658 14.8227 137.226 15.7043 137.594 16.701C137.977 17.6823 138.169 18.7173 138.169 19.806V20.312C138.169 21.324 137.977 22.3283 137.594 23.325C137.226 24.3063 136.658 25.1957 135.892 25.993C135.125 26.775 134.174 27.4037 133.04 27.879C131.905 28.3543 130.579 28.592 129.061 28.592H126.14ZM122.828 28.592V11.572H126.6V28.592H122.828ZM148.202 28.5V24.774H147.581V20.726C147.581 20.082 147.428 19.599 147.121 19.277C146.815 18.955 146.324 18.794 145.649 18.794C145.312 18.794 144.867 18.8017 144.315 18.817C143.763 18.8323 143.196 18.8553 142.613 18.886C142.031 18.9167 141.502 18.9473 141.026 18.978V15.873C141.379 15.8423 141.793 15.8117 142.268 15.781C142.744 15.7503 143.234 15.7273 143.74 15.712C144.246 15.6967 144.722 15.689 145.166 15.689C146.454 15.689 147.535 15.873 148.409 16.241C149.299 16.609 149.973 17.1687 150.433 17.92C150.893 18.656 151.123 19.6067 151.123 20.772V28.5H148.202ZM144.177 28.822C143.273 28.822 142.475 28.661 141.785 28.339C141.111 28.017 140.582 27.557 140.198 26.959C139.815 26.3457 139.623 25.6173 139.623 24.774C139.623 23.854 139.861 23.1027 140.336 22.52C140.812 21.922 141.479 21.485 142.337 21.209C143.196 20.9177 144.185 20.772 145.304 20.772H147.995V22.819H145.281C144.637 22.819 144.139 22.98 143.786 23.302C143.449 23.6087 143.28 24.0303 143.28 24.567C143.28 25.073 143.449 25.487 143.786 25.809C144.139 26.1157 144.637 26.269 145.281 26.269C145.695 26.269 146.063 26.2 146.385 26.062C146.723 25.9087 146.999 25.6557 147.213 25.303C147.428 24.9503 147.551 24.4597 147.581 23.831L148.455 24.751C148.379 25.625 148.164 26.361 147.811 26.959C147.474 27.557 146.999 28.017 146.385 28.339C145.787 28.661 145.051 28.822 144.177 28.822ZM154.246 28.5V15.896H157.167V21.301H156.96C156.96 20.013 157.121 18.9397 157.443 18.081C157.78 17.2223 158.286 16.5783 158.961 16.149C159.635 15.7197 160.456 15.505 161.422 15.505H161.583C163.055 15.505 164.174 15.988 164.941 16.954C165.723 17.9047 166.114 19.3537 166.114 21.301V28.5H162.434V21.094C162.434 20.4193 162.234 19.8673 161.836 19.438C161.437 19.0087 160.9 18.794 160.226 18.794C159.536 18.794 158.976 19.0163 158.547 19.461C158.133 19.8903 157.926 20.4577 157.926 21.163V28.5H154.246ZM174.908 28.937C173.819 28.937 172.868 28.7607 172.056 28.408C171.258 28.04 170.591 27.5493 170.055 26.936C169.518 26.3227 169.119 25.6327 168.859 24.866C168.598 24.084 168.468 23.279 168.468 22.451V22.014C168.468 21.1553 168.606 20.335 168.882 19.553C169.158 18.7557 169.564 18.0503 170.101 17.437C170.637 16.8237 171.304 16.3407 172.102 15.988C172.914 15.6353 173.842 15.459 174.885 15.459C176.019 15.459 177.024 15.6813 177.898 16.126C178.772 16.5553 179.469 17.161 179.991 17.943C180.512 18.725 180.803 19.622 180.865 20.634H177.254C177.192 20.0667 176.962 19.5913 176.564 19.208C176.18 18.8093 175.621 18.61 174.885 18.61C174.271 18.61 173.758 18.7633 173.344 19.07C172.945 19.3767 172.646 19.7983 172.447 20.335C172.247 20.8717 172.148 21.508 172.148 22.244C172.148 22.9187 172.24 23.532 172.424 24.084C172.608 24.6207 172.899 25.0423 173.298 25.349C173.712 25.6403 174.248 25.786 174.908 25.786C175.398 25.786 175.812 25.7017 176.15 25.533C176.502 25.349 176.778 25.1037 176.978 24.797C177.192 24.475 177.323 24.107 177.369 23.693H180.957C180.911 24.7357 180.619 25.6557 180.083 26.453C179.546 27.235 178.833 27.8483 177.944 28.293C177.054 28.7223 176.042 28.937 174.908 28.937ZM189.083 28.937C188.01 28.937 187.059 28.753 186.231 28.385C185.418 28.017 184.736 27.5263 184.184 26.913C183.647 26.2843 183.233 25.5867 182.942 24.82C182.666 24.038 182.528 23.2407 182.528 22.428V21.968C182.528 21.1247 182.666 20.3197 182.942 19.553C183.233 18.771 183.647 18.0733 184.184 17.46C184.721 16.8467 185.388 16.3637 186.185 16.011C186.998 15.643 187.918 15.459 188.945 15.459C190.294 15.459 191.429 15.7657 192.349 16.379C193.284 16.977 193.997 17.7667 194.488 18.748C194.979 19.714 195.224 20.772 195.224 21.922V23.164H184.069V21.071H192.993L191.797 22.037C191.797 21.2857 191.69 20.6417 191.475 20.105C191.26 19.5683 190.938 19.162 190.509 18.886C190.095 18.5947 189.574 18.449 188.945 18.449C188.301 18.449 187.757 18.5947 187.312 18.886C186.867 19.1773 186.53 19.6067 186.3 20.174C186.07 20.726 185.955 21.4083 185.955 22.221C185.955 22.9723 186.062 23.6317 186.277 24.199C186.492 24.751 186.829 25.1803 187.289 25.487C187.749 25.7937 188.347 25.947 189.083 25.947C189.758 25.947 190.31 25.8167 190.739 25.556C191.168 25.2953 191.46 24.9733 191.613 24.59H194.994C194.81 25.4333 194.45 26.1847 193.913 26.844C193.376 27.5033 192.702 28.017 191.889 28.385C191.076 28.753 190.141 28.937 189.083 28.937Z" fill="white"/>
</svg>
